<svg id="Layer_1" data-name="Layer 1" xmlns="http://www.w3.org/2000/svg" viewBox="0 0 500 500"><title>Artboard 1</title><path d="M250,58a195.32,195.32,0,0,1,136.49,55.51A199.8,199.8,0,0,1,411,142.44a193.91,193.91,0,0,1,18.5,33.22A195.58,195.58,0,0,1,288.9,445.6a196.2,196.2,0,0,1-77.8,0A195.76,195.76,0,0,1,250,58Zm0,0a194.54,194.54,0,0,0-37.45,3.75A188.15,188.15,0,0,0,77.46,321.47a185.8,185.8,0,0,0,17.8,31.91,192.66,192.66,0,0,0,23.57,27.79A187.79,187.79,0,0,0,250,434.5,188.42,188.42,0,0,0,425.34,177.38,188.19,188.19,0,0,0,287.45,61.75,194.54,194.54,0,0,0,250,58Z"/></svg>